<svg xmlns="http://www.w3.org/2000/svg" width="700" height="500" viewBox="0 0 700 500">
  <rect width="700" height="500" rx="32" fill="#fff9ef"/>
  <path d="M110 370a240 240 0 0 1 480 0" fill="none" stroke="#ff6f91" stroke-width="28" stroke-linecap="round"/>
  <path d="M145 370a205 205 0 0 1 410 0" fill="none" stroke="#ffb347" stroke-width="28" stroke-linecap="round"/>
  <path d="M180 370a170 170 0 0 1 340 0" fill="none" stroke="#ffd84d" stroke-width="28" stroke-linecap="round"/>
  <path d="M215 370a135 135 0 0 1 270 0" fill="none" stroke="#8ed081" stroke-width="28" stroke-linecap="round"/>
  <path d="M250 370a100 100 0 0 1 200 0" fill="none" stroke="#55c7f7" stroke-width="28" stroke-linecap="round"/>
  <circle cx="145" cy="155" r="34" fill="#fff"/>
  <circle cx="180" cy="140" r="26" fill="#fff"/>
  <circle cx="212" cy="162" r="22" fill="#fff"/>
  <circle cx="510" cy="145" r="34" fill="#fff"/>
  <circle cx="548" cy="130" r="26" fill="#fff"/>
  <circle cx="580" cy="152" r="22" fill="#fff"/>
</svg>
